<svg xmlns="http://www.w3.org/2000/svg" width="22" height="22" viewBox="0 0 22 22">
  <path fill="#49BDE4" fill-rule="evenodd" d="M10.75,0.012 C4.81703402,0.0136568675 0.00844817634,4.82403354 0.00900046551,10.7569997 C0.00955275467,16.6899659 4.8190341,21.4994472 10.7520003,21.4999995 C16.6849665,21.5005518 21.4953431,16.691966 21.497,10.759 C21.497,4.82359579 16.6854042,0.012 10.75,0.012 L10.75,0.012 Z M10.467,14.3 C10.2893731,14.4778233 10.0483413,14.57774 9.797,14.57774 C9.54565867,14.57774 9.30462694,14.4778233 9.127,14.3 L6.627,11.795 C6.15971011,11.3246686 6.15971011,10.5653314 6.627,10.095 L6.644,10.078 C7.11410579,9.61016314 7.87389421,9.61016314 8.344,10.078 L9.796,11.531 L13.811,7.517 C14.2811058,7.04916314 15.0408942,7.04916314 15.511,7.517 L15.528,7.534 C15.9958369,8.00410579 15.9958369,8.76389421 15.528,9.234 L10.467,14.3 Z"/>
</svg>
